<?xml version="1.0" standalone="no"?>
<!DOCTYPE svg PUBLIC "-//W3C//DTD SVG 20010904//EN"
 "http://www.w3.org/TR/2001/REC-SVG-20010904/DTD/svg10.dtd">
<svg version="1.0" xmlns="http://www.w3.org/2000/svg"
 width="700.000000pt" height="700.000000pt" viewBox="0 0 700.000000 700.000000"
 preserveAspectRatio="xMidYMid meet">
<metadata>
Created by potrace 1.11, written by Peter Selinger 2001-2013
</metadata>
<g transform="translate(0.000000,700.000000) scale(0.100000,-0.100000)"
fill="#000000" stroke="none">
<path d="M1640 5304 c-245 -39 -313 -54 -423 -93 -215 -75 -398 -181 -596
-346 -48 -40 -155 -152 -210 -220 -31 -38 -58 -72 -62 -75 -20 -18 -118 -182
-164 -275 -68 -138 -119 -291 -152 -454 -34 -168 -40 -429 -13 -603 10 -64 20
-120 23 -125 3 -4 8 -26 11 -48 6 -39 29 -119 45 -160 124 -307 234 -483 418
-670 282 -288 621 -460 1043 -531 64 -11 394 -13 460 -4 36 6 81 12 100 15
274 42 615 198 839 385 35 29 171 160 303 291 l239 239 227 -227 c247 -246
359 -345 467 -413 39 -25 80 -51 90 -57 49 -31 228 -114 306 -141 101 -35 289
-79 386 -90 89 -9 350 -9 433 1 115 14 338 69 415 102 17 7 55 23 85 35 293
118 599 376 794 670 82 123 202 379 221 470 2 8 9 35 16 60 7 25 13 50 14 55
60 282 54 599 -15 869 -147 566 -579 1038 -1134 1238 -100 37 -137 47 -216 63
-14 3 -45 10 -70 15 -91 20 -209 29 -365 25 -88 -2 -171 -6 -185 -8 -14 -3
-47 -8 -75 -12 -151 -19 -375 -93 -540 -180 -212 -111 -303 -185 -612 -493
l-243 -242 -247 246 c-304 303 -394 376 -604 487 -164 88 -383 162 -544 183
-27 3 -59 8 -70 11 -25 6 -361 12 -395 7z m298 -1239 c78 -19 158 -55 217
-101 28 -20 146 -133 263 -251 l213 -213 -218 -218 c-240 -239 -261 -257 -348
-300 -78 -39 -133 -53 -220 -58 -390 -20 -678 319 -600 709 34 169 196 353
358 406 20 7 37 17 37 21 0 5 6 7 13 5 6 -2 28 -1 47 3 57 13 176 11 238 -3z
m3419 -10 c178 -60 311 -186 373 -352 27 -71 33 -105 35 -193 6 -243 -142
-462 -372 -553 -64 -25 -99 -30 -203 -31 -106 0 -167 13 -255 57 -83 41 -113
67 -355 308 l-212 212 219 219 c259 259 325 307 473 343 71 17 232 12 297 -10z
m-2537 -369 c0 -2 -8 -10 -17 -17 -16 -13 -17 -12 -4 4 13 16 21 21 21 13z"/>
</g>
</svg>
