<?xml version="1.0" standalone="no"?>
<!DOCTYPE svg PUBLIC "-//W3C//DTD SVG 20010904//EN"
 "http://www.w3.org/TR/2001/REC-SVG-20010904/DTD/svg10.dtd">
<svg version="1.0" xmlns="http://www.w3.org/2000/svg"
 width="640.000000pt" height="640.000000pt" viewBox="0 0 640.000000 640.000000"
 preserveAspectRatio="xMidYMid meet">
<metadata>
Created by potrace 1.11, written by Peter Selinger 2001-2013
</metadata>
<g transform="translate(0.000000,640.000000) scale(0.100000,-0.100000)"
fill="#000000" stroke="none">
<path d="M1837 4615 c-1 -1 -41 -5 -88 -9 -48 -3 -93 -8 -100 -10 -8 -3 -27
-7 -44 -10 -16 -3 -40 -7 -52 -10 -53 -14 -69 -17 -83 -21 -8 -2 -16 -4 -17
-5 -2 -2 -6 -3 -10 -5 -5 -1 -21 -5 -38 -10 -45 -12 -255 -116 -255 -126 0 -5
-5 -9 -11 -9 -15 0 -107 -61 -139 -92 -14 -13 -43 -37 -65 -54 -22 -16 -43
-33 -47 -39 -8 -10 -80 -93 -135 -154 -18 -19 -33 -41 -33 -48 0 -7 -4 -13
-10 -13 -5 0 -10 -9 -10 -19 0 -11 -5 -23 -11 -27 -20 -12 -75 -109 -116 -204
-38 -89 -74 -211 -88 -305 -4 -22 -10 -62 -15 -90 -8 -53 -6 -313 4 -355 3
-14 13 -63 21 -110 9 -47 20 -93 25 -102 5 -9 12 -30 15 -46 3 -17 19 -61 37
-98 17 -38 32 -75 34 -82 1 -6 22 -42 46 -80 25 -37 53 -82 64 -101 10 -19 28
-44 39 -56 42 -44 150 -168 157 -179 4 -6 8 -8 8 -4 0 8 21 -8 74 -55 40 -36
160 -117 174 -117 6 0 12 -3 14 -7 5 -13 201 -105 233 -110 17 -3 36 -10 43
-15 6 -6 12 -8 12 -4 0 3 12 1 28 -5 15 -6 43 -13 62 -15 19 -3 51 -9 70 -14
108 -28 353 -31 480 -5 62 12 95 19 100 20 3 1 22 5 43 9 20 5 37 12 37 18 0
5 4 6 10 3 15 -10 118 29 210 80 19 11 38 19 41 20 13 1 79 40 79 47 0 5 6 8
14 8 8 0 16 3 18 8 2 4 15 14 30 22 45 25 119 93 321 293 104 103 190 187 192
187 2 0 90 -87 197 -192 106 -106 209 -205 230 -220 20 -15 42 -34 50 -41 7
-8 34 -26 58 -42 25 -15 47 -31 50 -34 19 -23 285 -139 335 -146 11 -2 20 -4
20 -5 0 -2 27 -9 65 -15 19 -3 42 -9 50 -12 63 -24 313 -35 430 -17 25 3 59 7
75 9 17 1 40 5 52 9 12 4 31 9 42 11 47 11 59 14 116 30 55 16 253 108 265
123 3 4 11 8 18 10 7 1 35 18 62 37 27 19 52 35 54 35 3 0 25 20 50 45 26 25
49 46 54 46 13 3 42 24 42 30 0 4 19 27 43 52 79 84 116 132 168 217 54 87 67
112 102 190 11 25 24 54 29 65 5 12 10 27 11 35 2 8 6 21 10 28 5 6 6 12 3 12
-3 0 -1 12 5 28 6 15 13 38 15 52 3 14 12 59 20 100 24 113 29 307 10 420 -19
116 -24 148 -33 180 -3 14 -7 27 -8 30 0 3 -7 29 -14 58 -7 28 -16 52 -20 52
-4 0 -7 8 -8 18 -2 26 -83 192 -94 192 -5 0 -9 4 -9 9 0 16 -70 125 -113 176
-63 74 -171 185 -180 185 -5 0 -27 18 -49 40 -23 22 -45 40 -50 40 -5 0 -18 8
-29 18 -10 11 -32 25 -47 33 -15 8 -30 18 -34 24 -4 5 -8 6 -8 1 0 -5 -6 -3
-14 3 -39 33 -214 109 -301 131 -5 1 -14 4 -20 5 -5 2 -37 8 -70 15 -33 6 -71
14 -85 17 -101 22 -326 21 -455 -2 -23 -4 -41 -9 -105 -25 -25 -6 -54 -13 -65
-15 -32 -6 -48 -11 -78 -23 -16 -7 -31 -12 -34 -12 -12 0 -178 -85 -185 -95
-4 -5 -8 -7 -8 -2 0 8 -115 -70 -184 -126 -22 -17 -128 -119 -235 -225 -162
-161 -196 -190 -209 -180 -8 7 -96 94 -196 193 -187 185 -258 249 -304 275
-15 8 -28 18 -30 23 -2 4 -10 7 -17 7 -7 0 -15 4 -17 9 -4 12 -240 131 -260
131 -8 0 -18 3 -22 7 -3 4 -12 8 -19 9 -7 1 -32 7 -57 14 -25 7 -52 14 -60 15
-8 2 -15 4 -15 5 0 1 -13 3 -30 5 -16 2 -41 6 -55 9 -46 11 -264 27 -273 21z
m148 -978 c11 -3 34 -10 50 -17 17 -6 31 -11 32 -11 6 1 73 -39 93 -56 12 -10
98 -94 192 -186 148 -147 168 -170 156 -184 -31 -39 -372 -373 -380 -373 -4 0
-31 -11 -59 -24 -70 -34 -151 -49 -226 -42 -105 10 -227 65 -279 126 -12 14
-34 39 -48 55 -14 17 -26 36 -26 43 0 6 -4 12 -9 12 -15 0 -53 151 -53 215 0
132 47 235 161 352 20 21 130 74 181 88 43 12 173 13 215 2z m2685 -11 c64
-19 145 -69 183 -113 17 -20 38 -42 45 -49 6 -7 12 -16 12 -20 0 -4 6 -15 13
-23 26 -30 59 -158 59 -224 0 -106 -43 -227 -103 -290 -17 -17 -34 -36 -37
-42 -19 -29 -133 -95 -164 -95 -8 0 -19 -5 -24 -10 -6 -6 -47 -13 -90 -15 -79
-4 -136 4 -190 26 -16 7 -32 12 -36 11 -5 -1 -8 3 -8 10 0 6 -3 8 -6 5 -7 -6
-38 7 -61 27 -26 22 -373 367 -373 371 0 7 323 325 331 325 4 0 10 8 14 18 7
25 132 84 220 106 33 8 167 -3 215 -18z"/>
</g>
</svg>
