<?xml version="1.0" encoding="utf-8"?>
<!-- Generator: Adobe Illustrator 24.0.1, SVG Export Plug-In . SVG Version: 6.00 Build 0)  -->
<svg version="1.1" id="Layer_1" xmlns="http://www.w3.org/2000/svg" xmlns:xlink="http://www.w3.org/1999/xlink" x="0px" y="0px"
	 viewBox="0 0 512 512" style="enable-background:new 0 0 512 512;" xml:space="preserve">
<style type="text/css">
	.st0{fill:#007469;}
	.st1{fill:#00DAC4;}
	.st2{fill:#00A494;}
	.st3{fill:none;}
</style>
<path class="st0" d="M512,256c0,35.4-13.8,68.6-38.8,93.6c-25,25-58.3,38.8-93.6,38.8c-35.4,0-68.6-13.8-93.6-38.8l-30-30l63.6-63.7
	l30,30c9.6,9.6,22.8,13.7,35.4,12.1c31.2-1.6,58.6-17.9,75.4-42c6.8-9.8,11.9-20.8,14.8-32.8c0.5-2.1,1-4.3,1.4-6.5
	c0.9-5.4,1.4-11,1.4-16.8c0-15-3.4-29.2-9.4-41.9c-19.5-17.7-43.3-29.1-69.1-33c27.8,4.1,53.5,17,73.8,37.3
	C498.2,187.4,512,220.6,512,256z"/>
<path class="st0" d="M319.6,256c0,0,0,0-0.1,0l0,0h0c0,0,0,0,0,0l-0.3-0.3L319.6,256L319.6,256L319.6,256z"/>
<path class="st1" d="M319.6,256c0,0,0,0-0.1,0c0,0,0,0,0,0l-0.3-0.3L319.6,256L319.6,256L319.6,256L319.6,256z"/>
<path class="st2" d="M373.9,214c-8.9,1.2-17.5,5.2-24.3,12l-30,30l0,0l0,0c0,0,0,0-0.1,0l0,0h0c0,0,0,0,0,0l-0.3-0.3l0.4,0.3l0,0
	l29.9-29.9C356.3,219.2,364.9,215.1,373.9,214z"/>
<path class="st2" d="M477.9,200c0,5.7-0.5,11.3-1.4,16.8c-0.4,2.2-0.8,4.4-1.4,6.5c-2.9,11.9-8,23-14.8,32.8
	c-16.8,24.2-44.2,40.4-75.4,42c9-1.1,17.7-5.1,24.6-12.1c8-8,12.4-18.7,12.4-30s-4.4-22-12.4-30c-6.9-6.9-15.5-10.9-24.4-12
	c-0.6-0.1-1.2-0.1-1.8-0.2c0,0,0,0,0,0c-0.6-0.1-1.3-0.1-1.9-0.1c-0.3,0-0.7,0-1,0c-0.6,0-1.2,0-1.9,0c-0.3,0-0.7,0-1,0
	c-0.6,0-1.3,0.1-1.9,0.1c0,0,0,0,0,0c-0.6,0-1.2,0.1-1.8,0.2c-8.9,1.2-17.6,5.2-24.4,12l-29.9,29.9l0,0l-0.4-0.3l0.3,0.3
	c0,0,0,0,0,0h0l0,0c0.1,0,0.1,0,0.1,0l0,0l0,0L256,319.7l-30,30c-1.7,1.7-3.5,3.4-5.3,5.1c-24.3,21.8-55.4,33.7-88.3,33.7
	c-33.3,0-64.7-12.2-89.1-34.5c-6-12.7-9.4-26.9-9.4-41.9c0-5.7,0.5-11.3,1.4-16.8c2.5-14.4,8.1-27.7,16.1-39.3
	c16.9-24.2,44.4-40.5,75.8-42.1c-9.1,1.1-17.8,5.1-24.8,12.1c-8,8-12.4,18.7-12.4,30s4.4,22,12.4,30c16.5,16.5,43.4,16.5,60,0l30-30
	l11.3-11.3l52.3-52.3l30-30c1.6-1.7,3.3-3.3,5.1-4.8c21.6-19.5,48.6-31.2,77.5-33.5c0.9-0.1,1.9-0.1,2.8-0.2c0.5,0,1.1-0.1,1.6-0.1
	c0.5,0,1,0,1.5-0.1c0.1,0,0.3,0,0.4,0c0.9,0,1.7,0,2.5-0.1c0.7,0,1.3,0,2,0h0.2c2,0,4,0,6,0.1c1,0,1.9,0.1,2.9,0.2
	c1,0.1,1.9,0.1,2.9,0.2c1.4,0.1,2.7,0.3,4,0.4c1.3,0.2,2.7,0.3,4,0.5c25.7,3.9,49.6,15.2,69.1,33C474.5,170.8,477.9,185,477.9,200z"
	/>
<path class="st3" d="M220.7,354.7c-15.9,32.9-49.6,55.6-88.5,55.6c-39.3,0-73.2-23-88.9-56.4c24.4,22.3,55.8,34.5,89.1,34.5
	C165.3,388.4,196.4,376.5,220.7,354.7z"/>
<path class="st1" d="M256,192.4l-52.3,52.3L192.4,256h0l-30-30c-6.9-6.9-15.5-10.9-24.4-12c-3.6-0.5-7.2-0.5-10.8,0
	c-31.4,1.5-58.9,17.8-75.8,42.1c-8,11.5-13.6,24.9-16.1,39.3c-0.9,5.4-1.4,11-1.4,16.8c0,15,3.4,29.2,9.4,41.9
	c-1.5-1.4-3-2.8-4.5-4.3C13.8,324.6,0,291.4,0,256s13.8-68.6,38.8-93.6c25-25,58.3-38.8,93.6-38.8c35.4,0,68.6,13.8,93.6,38.8
	L256,192.4z"/>
<path class="st3" d="M192.4,256l-30,30c-16.5,16.5-43.4,16.5-60,0c-8-8-12.4-18.7-12.4-30s4.4-22,12.4-30c7-7,15.7-11,24.8-12.1
	c1.6-0.1,3.3-0.1,4.9-0.1c2,0,3.9,0.1,5.8,0.2c8.9,1.2,17.6,5.2,24.4,12L192.4,256L192.4,256z"/>
<path class="st2" d="M319.5,255.9L319.5,255.9L319.5,255.9C319.4,256,319.4,256,319.5,255.9l-0.4-0.3L319.5,255.9z"/>
<path class="st2" d="M368.5,124c-28.9,2.4-55.9,14-77.5,33.5c0-0.1,0.1-0.2,0.1-0.3C312.8,137.9,339.7,126.4,368.5,124z"/>
<path class="st2" d="M422,256c0,11.3-4.4,22-12.4,30c-6.9,6.9-15.6,10.9-24.6,12.1c-0.1,0-0.2,0-0.3,0c9.1-1.1,17.9-5.1,24.8-12.1
	c8-8,12.4-18.7,12.4-30s-4.4-22-12.4-30c-6.8-6.8-15.4-10.8-24.3-12c8.9,1.2,17.6,5.2,24.4,12C417.6,234,422,244.7,422,256z"/>
</svg>
