<?xml version="1.0" encoding="utf-8"?>
<!-- Generator: Adobe Illustrator 24.0.1, SVG Export Plug-In . SVG Version: 6.00 Build 0)  -->
<svg version="1.1" id="Capa_1" xmlns="http://www.w3.org/2000/svg" xmlns:xlink="http://www.w3.org/1999/xlink" x="0px" y="0px"
	 viewBox="0 0 512 512" style="enable-background:new 0 0 512 512;" xml:space="preserve">
<style type="text/css">
	.st0{fill:#FEB03B;}
	.st1{fill:#DB891D;}
	.st2{fill:#B56606;}
	.st3{fill:#FEDB3F;}
	.st4{fill:#E2BF29;}
</style>
<path class="st0" d="M484.8,140.9c-4.4-8.8-9.4-17.3-14.8-25.5c-9.5-14.4-20.5-27.9-33-40.4c-8.6-8.6-17.7-16.5-27.2-23.6
	c-1.7-1.3-3.5-2.6-5.2-3.9c-2.6-1.9-5.3-3.7-8-5.5c-8.2-5.4-16.8-10.4-25.6-14.8C335.8,9.4,296.6,0,256,0s-79.8,9.4-115.1,27.2
	c-8.8,4.4-17.3,9.4-25.5,14.8C101,51.5,87.5,62.5,75,75c-12.5,12.5-23.5,26-33,40.4c-2.2,3.3-4.3,6.6-6.3,10
	c-0.4,0.7-0.8,1.4-1.2,2.1c-0.8,1.3-1.5,2.5-2.2,3.8c-0.4,0.8-0.9,1.6-1.3,2.3c-0.7,1.3-1.4,2.6-2.1,4c-0.6,1.1-1.1,2.2-1.7,3.3
	C9.4,176.2,0,215.4,0,256s9.4,79.8,27.2,115.1c0.5,1.1,1.1,2.2,1.7,3.3c2.1,4,4.3,7.9,6.6,11.8c0.4,0.7,0.8,1.3,1.2,1.9
	c1.7,2.9,3.5,5.7,5.4,8.5c9.5,14.4,20.5,27.9,33,40.4c12.5,12.5,26,23.5,40.4,33c1,0.7,2.1,1.3,3.1,2c0.9,0.6,1.8,1.1,2.7,1.7
	c0.3,0.2,0.5,0.3,0.8,0.5c0.6,0.4,1.3,0.8,1.9,1.2c2.2,1.3,4.4,2.6,6.7,3.9c0.8,0.5,1.6,0.9,2.4,1.3c0.9,0.5,1.7,0.9,2.6,1.4
	c0.8,0.4,1.5,0.8,2.3,1.2c1,0.6,2.1,1.1,3.1,1.6C176.2,502.6,215.4,512,256,512s79.8-9.4,115.1-27.2c8.8-4.4,17.3-9.4,25.5-14.8
	c14.4-9.5,27.9-20.5,40.4-33c12.5-12.5,23.5-26,33-40.4c0.8-1.3,1.7-2.6,2.5-3.9c1.6-2.6,3.2-5.2,4.8-7.9c0.1-0.1,0.1-0.2,0.2-0.3
	c0,0,0,0,0-0.1c0.2-0.4,0.4-0.8,0.7-1.1c0.6-1,1.1-2,1.7-3c0.4-0.8,0.9-1.5,1.3-2.3c0.7-1.2,1.4-2.5,2-3.8c0.6-1.1,1.1-2.2,1.7-3.3
	c0.4-0.7,0.7-1.4,1.1-2.2c0.4-0.7,0.7-1.5,1.1-2.2c1.1-2.2,2.1-4.4,3.1-6.6c2.3-5.2,4.4-10.4,6.4-15.7c0.6-1.5,1.1-3,1.6-4.6
	c0.5-1.5,1-3.1,1.5-4.6c1.3-4.1,2.6-8.2,3.7-12.4c5.8-21.5,8.7-43.9,8.7-66.7C512,215.4,502.6,176.2,484.8,140.9z M397.2,354.6
	c-11.6,16.6-26,31-42.6,42.6c-8,5.6-16.6,10.6-25.6,14.8c-22.2,10.4-46.9,16.3-73,16.3s-50.8-5.8-73-16.3h0
	c-9-4.2-17.5-9.2-25.5-14.8c-16.6-11.6-31-26-42.6-42.6c-5.6-8-10.6-16.6-14.8-25.5v0c-10.4-22.2-16.3-46.9-16.3-73
	s5.8-50.8,16.3-73v0c4.2-9,9.2-17.5,14.8-25.5c11.6-16.6,26-31,42.6-42.6c8-5.6,16.6-10.6,25.6-14.8c22.2-10.4,46.9-16.3,73-16.3
	s50.8,5.8,73,16.3c9,4.2,17.5,9.2,25.6,14.8c16.6,11.6,31,26,42.6,42.6c5.6,8,10.6,16.6,14.8,25.6c10.4,22.2,16.3,46.9,16.3,73
	s-5.8,50.8-16.3,73C407.8,338,402.9,346.6,397.2,354.6z"/>
<g>
	<path class="st1" d="M512,256c0,22.8-3,45.2-8.7,66.7c-1.1,4.2-2.4,8.3-3.7,12.4c-0.5,1.5-1,3.1-1.5,4.6c-0.5,1.5-1.1,3.1-1.6,4.6
		c-1.9,5.3-4.1,10.6-6.4,15.7c-1,2.2-2,4.4-3.1,6.6c-0.3,0.7-0.7,1.5-1.1,2.2c-0.4,0.7-0.7,1.5-1.1,2.2c-0.5,1.1-1.1,2.2-1.7,3.3
		c-0.7,1.3-1.3,2.5-2,3.8c-0.4,0.8-0.8,1.5-1.3,2.3c-0.5,1-1.1,2-1.7,3c-0.2,0.4-0.4,0.8-0.7,1.1c0,0,0,0,0,0.1
		c-0.1,0.1-0.1,0.2-0.2,0.3c-1.5,2.6-3.1,5.3-4.8,7.9c-0.8,1.3-1.7,2.6-2.5,3.9c-9.5,14.4-20.5,27.9-33,40.4
		c-12.5,12.5-26,23.5-40.4,33c-8.2,5.4-16.8,10.4-25.5,14.8C335.8,502.6,296.6,512,256,512v-83.7c26.1,0,50.8-5.8,73-16.3
		c9-4.2,17.5-9.2,25.6-14.8c16.6-11.6,31-26,42.6-42.6c5.6-8,10.6-16.6,14.8-25.6c10.4-22.2,16.3-46.9,16.3-73s-5.8-50.8-16.3-73
		c-4.2-9-9.2-17.5-14.8-25.6c-11.6-16.6-26-31-42.6-42.6c-8-5.6-16.6-10.6-25.6-14.8c-22.2-10.4-46.9-16.3-73-16.3V0
		c40.6,0,79.8,9.4,115.1,27.2c8.8,4.4,17.3,9.4,25.6,14.8c2.7,1.8,5.4,3.6,8,5.5c1.8,1.3,3.5,2.5,5.2,3.9
		c9.5,7.2,18.6,15.1,27.2,23.6c12.5,12.5,23.5,26,33,40.4c5.4,8.2,10.4,16.8,14.8,25.5C502.6,176.2,512,215.4,512,256z"/>
	<path class="st1" d="M183,100c-9,4.2-17.5,9.2-25.6,14.8l-42-72.8c8.2-5.4,16.8-10.4,25.5-14.8L183,100z"/>
</g>
<path class="st2" d="M396.6,470c-8.2,5.4-16.8,10.4-25.5,14.8L329,412c9-4.2,17.5-9.2,25.6-14.8L396.6,470z"/>
<path class="st1" d="M114.8,157.4c-5.6,8-10.6,16.6-14.8,25.5l-72.8-42c0.5-1.1,1.1-2.2,1.7-3.3c0.7-1.3,1.4-2.7,2.1-4
	c0.4-0.8,0.9-1.6,1.3-2.3c0.7-1.3,1.4-2.6,2.2-3.8c0.4-0.7,0.8-1.4,1.2-2.1c2-3.4,4.1-6.7,6.3-10L114.8,157.4z"/>
<path class="st2" d="M484.8,371.1c-0.5,1.1-1.1,2.2-1.7,3.3c-0.7,1.3-1.3,2.5-2,3.8c-0.4,0.8-0.8,1.5-1.3,2.3c-0.5,1-1.1,2-1.7,3
	c-0.2,0.4-0.4,0.8-0.7,1.1c0,0,0,0,0,0.1c-0.1,0.1-0.1,0.2-0.2,0.3c-1.5,2.6-3.1,5.3-4.8,7.9c-0.8,1.3-1.7,2.6-2.5,3.9l-72.8-42
	c5.6-8,10.6-16.6,14.8-25.6L484.8,371.1L484.8,371.1z"/>
<path class="st1" d="M114.8,354.6l-72.8,42c-1.8-2.8-3.6-5.6-5.4-8.5c-0.4-0.6-0.8-1.3-1.2-1.9c-2.3-3.9-4.5-7.8-6.6-11.8
	c-0.6-1.1-1.1-2.2-1.7-3.3l72.8-42C104.2,338,109.1,346.6,114.8,354.6z"/>
<path class="st2" d="M484.8,140.9L412,183c-4.2-9-9.2-17.5-14.8-25.6l72.8-42C475.5,123.6,480.4,132.2,484.8,140.9z"/>
<path class="st1" d="M183,412l-42,72.8c-1-0.5-2.1-1.1-3.1-1.6c-0.8-0.4-1.5-0.8-2.3-1.2c-0.9-0.5-1.7-0.9-2.6-1.4
	c-0.8-0.4-1.6-0.9-2.4-1.3c-2.2-1.3-4.5-2.5-6.7-3.9c-0.6-0.4-1.3-0.8-1.9-1.2c-0.3-0.2-0.5-0.3-0.8-0.5c-0.9-0.6-1.8-1.1-2.7-1.7
	c-1-0.7-2.1-1.3-3.1-2l42-72.8C165.4,402.9,174,407.8,183,412z"/>
<path class="st2" d="M396.6,42l-42,72.8c-8-5.6-16.6-10.6-25.6-14.8l42-72.8C379.8,31.6,388.4,36.5,396.6,42z"/>
<path class="st3" d="M197.3,240l18.8,18.8l-18.8,18.8c-10.4,10.3-27.2,10.3-37.5,0c-5.1-5.1-7.8-11.7-7.8-18.8s2.8-13.8,7.8-18.8
	C170.1,229.7,187,229.7,197.3,240z"/>
<path class="st3" d="M256,63.8v155.1l-18.8-18.8c-15.7-15.7-36.5-24.3-58.7-24.3s-43,8.7-58.7,24.3c-15.7,15.7-24.3,36.5-24.3,58.7
	s8.6,43,24.3,58.7c15.7,15.7,36.5,24.3,58.7,24.3s43-8.7,58.7-24.3l18.8-18.8v149.4c-29.1,0-56.7-6.5-81.5-18.1h0
	c-0.5-0.2-1-0.5-1.5-0.7c-8.9-4.3-17.5-9.2-25.5-14.8c-0.5-0.3-0.9-0.6-1.4-1c-18.5-12.9-34.6-29-47.5-47.5c-0.3-0.5-0.7-0.9-1-1.4
	C92,356.5,87,347.9,82.7,339c-0.2-0.5-0.5-1-0.7-1.5v0c-11.6-24.7-18.1-52.4-18.1-81.5s6.5-56.7,18.1-81.5v0c0.2-0.5,0.5-1,0.7-1.5
	c4.3-8.9,9.2-17.5,14.8-25.5c0.3-0.5,0.6-0.9,1-1.4c12.9-18.5,29-34.6,47.5-47.5c0.5-0.3,0.9-0.7,1.4-1C155.5,92,164.1,87,173,82.7
	c0.5-0.2,1-0.5,1.5-0.7C199.3,70.3,226.9,63.8,256,63.8z"/>
<path class="st4" d="M314.7,277.6l-18.8-18.8l18.8-18.8c10.4-10.4,27.2-10.4,37.5,0c5.1,5,7.8,11.7,7.8,18.8s-2.8,13.8-7.8,18.8
	C341.9,287.9,325,287.9,314.7,277.6z"/>
<path class="st4" d="M448.2,256c0,29.1-6.5,56.7-18.1,81.5c-0.2,0.5-0.5,1-0.7,1.5c-4.3,8.9-9.2,17.5-14.8,25.6
	c-0.3,0.5-0.6,0.9-1,1.4c-12.9,18.5-29,34.6-47.5,47.5c-0.5,0.3-0.9,0.7-1.4,1c-8.1,5.6-16.6,10.5-25.6,14.8c-0.5,0.2-1,0.5-1.5,0.7
	c-24.7,11.6-52.4,18.1-81.5,18.1V298.7l18.8,18.8c15.7,15.7,36.5,24.3,58.7,24.3s43-8.7,58.7-24.3c15.7-15.7,24.3-36.5,24.3-58.7
	s-8.7-43-24.3-58.7c-15.7-15.7-36.5-24.3-58.7-24.3s-43,8.7-58.7,24.3L256,218.9V63.8c29.1,0,56.7,6.5,81.5,18.1
	c0.5,0.2,1,0.5,1.5,0.7c8.9,4.3,17.5,9.2,25.6,14.8c0.5,0.3,0.9,0.6,1.4,1c18.5,12.9,34.6,29,47.5,47.5c0.3,0.5,0.7,0.9,1,1.4
	c5.6,8.1,10.5,16.6,14.8,25.6c0.2,0.5,0.5,1,0.7,1.5C441.7,199.3,448.2,226.9,448.2,256z"/>
<g>
	<path class="st1" d="M237.2,200.1c-15.7-15.7-36.5-24.3-58.7-24.3s-43,8.7-58.7,24.3c-15.7,15.7-24.3,36.5-24.3,58.7
		s8.6,43,24.3,58.7c15.7,15.7,36.5,24.3,58.7,24.3s43-8.7,58.7-24.3l18.8-18.8v-79.8L237.2,200.1z M197.3,277.6
		c-10.4,10.3-27.2,10.3-37.5,0c-5.1-5.1-7.8-11.7-7.8-18.8s2.8-13.8,7.8-18.8c10.4-10.4,27.2-10.4,37.5,0l18.8,18.8L197.3,277.6z"/>
	<path class="st2" d="M392.1,200.1c-15.7-15.7-36.5-24.3-58.7-24.3s-43,8.7-58.7,24.3L256,218.9v79.8l18.8,18.8
		c15.7,15.7,36.5,24.3,58.7,24.3s43-8.7,58.7-24.3c15.7-15.7,24.3-36.5,24.3-58.7S407.8,215.8,392.1,200.1z M352.2,277.6
		c-10.4,10.3-27.2,10.3-37.5,0l-18.8-18.8l18.8-18.8c10.4-10.4,27.2-10.4,37.5,0c5.1,5,7.8,11.7,7.8,18.8S357.3,272.6,352.2,277.6z"
		/>
</g>
</svg>
