<?xml version="1.0" encoding="utf-8"?>
<!-- Generator: Adobe Illustrator 24.0.1, SVG Export Plug-In . SVG Version: 6.00 Build 0)  -->
<svg version="1.1" id="Capa_1" xmlns="http://www.w3.org/2000/svg" xmlns:xlink="http://www.w3.org/1999/xlink" x="0px" y="0px"
	 viewBox="0 0 300 300" style="enable-background:new 0 0 300 300;" xml:space="preserve">
<style type="text/css">
	.st0{fill:#E7A036;}
	.st1{fill:#C77D1A;}
	.st2{fill:#A55D05;}
	.st3{fill:#E7C739;}
	.st4{fill:#CEAE25;}
</style>
<path class="st0" d="M284.1,82.6c-2.6-5.1-5.5-10.1-8.7-15c-5.6-8.4-12-16.4-19.3-23.7c-5-5-10.3-9.7-15.9-13.9
	c-1-0.8-2-1.5-3.1-2.3c-1.5-1.1-3.1-2.2-4.7-3.2c-4.8-3.2-9.8-6.1-15-8.7C196.8,5.5,173.8,0,150,0s-46.8,5.5-67.4,15.9
	c-5.1,2.6-10.1,5.5-15,8.7c-8.4,5.6-16.4,12-23.7,19.3S30.1,59.1,24.6,67.6c-1.3,1.9-2.5,3.9-3.7,5.9c-0.2,0.4-0.5,0.8-0.7,1.2
	c-0.4,0.7-0.9,1.5-1.3,2.2c-0.3,0.5-0.5,0.9-0.8,1.4c-0.4,0.8-0.8,1.5-1.2,2.3c-0.3,0.6-0.7,1.3-1,1.9C5.5,103.2,0,126.2,0,150
	s5.5,46.8,15.9,67.4c0.3,0.6,0.7,1.3,1,1.9c1.2,2.3,2.5,4.7,3.9,6.9c0.2,0.4,0.4,0.8,0.7,1.1c1,1.7,2.1,3.3,3.1,5
	c5.6,8.4,12,16.4,19.3,23.7s15.2,13.8,23.7,19.3c0.6,0.4,1.2,0.8,1.8,1.2c0.5,0.3,1,0.7,1.6,1c0.2,0.1,0.3,0.2,0.5,0.3
	c0.4,0.2,0.7,0.5,1.1,0.7c1.3,0.8,2.6,1.5,3.9,2.3c0.5,0.3,0.9,0.5,1.4,0.8s1,0.5,1.5,0.8c0.4,0.2,0.9,0.5,1.3,0.7
	c0.6,0.3,1.2,0.6,1.8,0.9c20.7,10.4,43.6,15.9,67.4,15.9s46.8-5.5,67.4-15.9c5.1-2.6,10.1-5.5,15-8.7c8.4-5.6,16.4-12,23.7-19.3
	c7.3-7.3,13.8-15.2,19.3-23.7c0.5-0.7,1-1.5,1.5-2.3c1-1.5,1.9-3.1,2.8-4.6c0-0.1,0.1-0.1,0.1-0.2l0,0c0.1-0.2,0.3-0.4,0.4-0.7
	c0.3-0.6,0.7-1.1,1-1.7c0.3-0.4,0.5-0.9,0.7-1.3c0.4-0.7,0.8-1.5,1.2-2.2c0.3-0.6,0.7-1.3,1-1.9c0.2-0.4,0.4-0.8,0.6-1.3
	c0.2-0.4,0.4-0.9,0.6-1.3c0.6-1.3,1.2-2.6,1.8-3.9c1.3-3,2.6-6.1,3.7-9.2c0.3-0.9,0.6-1.8,1-2.7c0.3-0.9,0.6-1.8,0.9-2.7
	c0.8-2.4,1.5-4.8,2.2-7.3c3.4-12.6,5.1-25.7,5.1-39.1C300,126.2,294.5,103.2,284.1,82.6z M232.8,207.8c-6.8,9.7-15.3,18.2-25,25
	c-4.7,3.3-9.7,6.2-15,8.7c-13,6.1-27.5,9.5-42.8,9.5s-29.8-3.4-42.8-9.5l0,0c-5.3-2.5-10.3-5.4-15-8.7c-9.7-6.8-18.2-15.3-25-25
	c-3.3-4.7-6.2-9.7-8.7-15l0,0c-6.1-13-9.5-27.5-9.5-42.8s3.4-29.8,9.5-42.8l0,0c2.5-5.3,5.4-10.3,8.7-15c6.8-9.7,15.3-18.2,25-25
	c4.7-3.3,9.7-6.2,15-8.7c13-6.1,27.5-9.5,42.8-9.5s29.8,3.4,42.8,9.5c5.3,2.5,10.3,5.4,15,8.7c9.7,6.8,18.2,15.3,25,25
	c3.3,4.7,6.2,9.7,8.7,15c6.1,13,9.5,27.5,9.5,42.8s-3.4,29.8-9.5,42.8C239,198.1,236.1,203.1,232.8,207.8z"/>
<g>
	<path class="st1" d="M300,150c0,13.4-1.7,26.5-5.1,39.1c-0.7,2.4-1.4,4.9-2.2,7.3c-0.3,0.9-0.6,1.8-0.9,2.7s-0.6,1.8-1,2.7
		c-1.1,3.1-2.4,6.2-3.7,9.2c-0.6,1.3-1.2,2.6-1.8,3.9c-0.2,0.4-0.4,0.9-0.6,1.3c-0.2,0.4-0.4,0.8-0.6,1.3c-0.3,0.6-0.7,1.3-1,1.9
		c-0.4,0.7-0.8,1.5-1.2,2.2c-0.2,0.5-0.5,0.9-0.7,1.3c-0.3,0.6-0.6,1.2-1,1.7c-0.1,0.2-0.3,0.4-0.4,0.7l0,0c0,0.1-0.1,0.1-0.1,0.2
		c-0.9,1.6-1.8,3.1-2.8,4.6c-0.5,0.8-1,1.5-1.5,2.3c-5.6,8.4-12,16.4-19.3,23.7c-7.3,7.3-15.2,13.8-23.7,19.3
		c-4.8,3.2-9.8,6.1-15,8.7C196.8,294.5,173.8,300,150,300v-49c15.3,0,29.8-3.4,42.8-9.5c5.3-2.5,10.3-5.4,15-8.7
		c9.7-6.8,18.2-15.3,25-25c3.3-4.7,6.2-9.7,8.7-15c6.1-13,9.5-27.5,9.5-42.8s-3.4-29.8-9.5-42.8c-2.5-5.3-5.4-10.3-8.7-15
		c-6.8-9.7-15.3-18.2-25-25c-4.7-3.3-9.7-6.2-15-8.7c-13-6.1-27.5-9.5-42.8-9.5V0c23.8,0,46.8,5.5,67.4,15.9
		c5.2,2.6,10.1,5.5,15,8.7c1.6,1,3.1,2.1,4.7,3.2c1,0.7,2.1,1.5,3.1,2.3c5.6,4.2,10.9,8.8,15.9,13.9c7.3,7.3,13.8,15.2,19.3,23.7
		c3.2,4.8,6.1,9.8,8.7,15C294.5,103.2,300,126.2,300,150z"/>
	<path class="st1" d="M107.2,58.6c-5.3,2.5-10.3,5.4-15,8.7L67.6,24.6c4.8-3.2,9.8-6.1,15-8.7L107.2,58.6z"/>
</g>
<path class="st2" d="M232.4,275.4c-4.8,3.2-9.8,6.1-15,8.7l-24.6-42.6c5.3-2.5,10.3-5.4,15-8.7L232.4,275.4z"/>
<path class="st1" d="M67.2,92.2c-3.3,4.7-6.2,9.7-8.7,15L15.9,82.6c0.3-0.6,0.7-1.3,1-1.9c0.4-0.8,0.8-1.6,1.2-2.3
	c0.2-0.5,0.5-0.9,0.8-1.4c0.4-0.8,0.8-1.5,1.3-2.2c0.2-0.4,0.5-0.8,0.7-1.2c1.2-2,2.4-3.9,3.7-5.9L67.2,92.2z"/>
<path class="st2" d="M284.1,217.4c-0.3,0.6-0.7,1.3-1,1.9c-0.4,0.7-0.8,1.5-1.2,2.2c-0.2,0.5-0.5,0.9-0.7,1.3
	c-0.3,0.6-0.6,1.2-1,1.7c-0.1,0.2-0.3,0.4-0.4,0.7l0,0c0,0.1-0.1,0.1-0.1,0.2c-0.9,1.6-1.8,3.1-2.8,4.6c-0.5,0.8-1,1.5-1.5,2.3
	l-42.7-24.6c3.3-4.7,6.2-9.7,8.7-15L284.1,217.4L284.1,217.4z"/>
<path class="st1" d="M67.2,207.8l-42.7,24.6c-1.1-1.6-2.1-3.3-3.1-5c-0.2-0.4-0.5-0.8-0.7-1.1c-1.4-2.3-2.6-4.6-3.9-6.9
	c-0.3-0.6-0.7-1.3-1-1.9l42.6-24.6C61,198.1,63.9,203.1,67.2,207.8z"/>
<path class="st2" d="M284.1,82.6l-42.6,24.6c-2.5-5.3-5.4-10.3-8.7-15l42.7-24.6C278.6,72.4,281.5,77.4,284.1,82.6z"/>
<path class="st1" d="M107.2,241.4L82.6,284c-0.6-0.3-1.2-0.6-1.8-0.9c-0.4-0.2-0.9-0.5-1.3-0.7c-0.5-0.3-1-0.5-1.5-0.8
	s-0.9-0.5-1.4-0.8c-1.3-0.7-2.6-1.5-3.9-2.3c-0.4-0.2-0.7-0.5-1.1-0.7c-0.2-0.1-0.3-0.2-0.5-0.3c-0.5-0.3-1.1-0.7-1.6-1
	c-0.6-0.4-1.2-0.8-1.8-1.2l24.6-42.7C96.9,236.1,101.9,239,107.2,241.4z"/>
<path class="st2" d="M232.4,24.6l-24.6,42.7c-4.7-3.3-9.7-6.2-15-8.7L217.4,16C222.6,18.5,227.6,21.4,232.4,24.6z"/>
<path class="st3" d="M115.6,140.7l11,11l-11,11c-6.1,6.1-15.9,6.1-22,0c-3-3-4.6-6.9-4.6-11s1.6-8.1,4.6-11
	C99.7,134.6,109.6,134.6,115.6,140.7z"/>
<path class="st3" d="M150,37.4v90.9l-11-11c-9.2-9.2-21.4-14.2-34.4-14.2s-25.2,5.1-34.4,14.2c-9.2,9.2-14.3,21.4-14.3,34.4
	c0,13,5,25.2,14.3,34.4c9.2,9.2,21.4,14.3,34.4,14.3s25.2-5.1,34.4-14.3l11-11v87.6c-17,0-33.2-3.8-47.7-10.6l0,0
	c-0.3-0.1-0.6-0.3-0.9-0.4c-5.2-2.5-10.2-5.4-15-8.7c-0.3-0.2-0.6-0.4-0.8-0.6c-10.8-7.6-20.3-17-27.9-27.9
	c-0.2-0.3-0.4-0.6-0.6-0.8c-3.3-4.7-6.2-9.7-8.7-15c-0.1-0.3-0.3-0.6-0.4-0.9l0,0C41.2,183.2,37.4,167,37.4,150s3.8-33.2,10.6-47.7
	l0,0c0.1-0.3,0.3-0.6,0.4-0.9c2.5-5.2,5.4-10.2,8.7-15c0.2-0.3,0.4-0.6,0.6-0.8c7.6-10.8,17-20.3,27.9-27.9c0.3-0.2,0.6-0.4,0.8-0.6
	c4.7-3.3,9.7-6.2,15-8.7c0.3-0.1,0.6-0.3,0.9-0.4C116.8,41.2,133,37.4,150,37.4z"/>
<path class="st4" d="M184.4,162.7l-11-11l11-11c6.1-6.1,15.9-6.1,22,0c3,3,4.6,6.9,4.6,11s-1.6,8.1-4.6,11
	C200.3,168.7,190.4,168.7,184.4,162.7z"/>
<path class="st4" d="M262.6,150c0,17-3.8,33.2-10.6,47.7c-0.1,0.3-0.3,0.6-0.4,0.9c-2.5,5.2-5.4,10.2-8.7,15
	c-0.2,0.3-0.4,0.6-0.6,0.8c-7.6,10.8-17,20.3-27.9,27.9c-0.3,0.2-0.6,0.4-0.8,0.6c-4.7,3.3-9.7,6.2-15,8.7c-0.3,0.1-0.6,0.3-0.9,0.4
	c-14.5,6.8-30.7,10.6-47.7,10.6V175l11,11c9.2,9.2,21.4,14.3,34.4,14.3c13,0,25.2-5.1,34.4-14.3s14.3-21.4,14.3-34.4
	s-5.1-25.2-14.3-34.4S208.4,103,195.4,103s-25.2,5.1-34.4,14.2l-11,11V37.4c17,0,33.2,3.8,47.7,10.6c0.3,0.1,0.6,0.3,0.9,0.4
	c5.2,2.5,10.2,5.4,15,8.7c0.3,0.2,0.6,0.4,0.8,0.6c10.8,7.6,20.3,17,27.9,27.9c0.2,0.3,0.4,0.6,0.6,0.8c3.3,4.7,6.2,9.7,8.7,15
	c0.1,0.3,0.3,0.6,0.4,0.9C258.8,116.8,262.6,133,262.6,150z"/>
<g>
	<path class="st1" d="M139,117.3c-9.2-9.2-21.4-14.2-34.4-14.2s-25.2,5.1-34.4,14.2c-9.2,9.2-14.3,21.4-14.3,34.4
		c0,13,5,25.2,14.3,34.4c9.2,9.2,21.4,14.3,34.4,14.3s25.2-5.1,34.4-14.3l11-11v-46.8L139,117.3z M115.6,162.7
		c-6.1,6.1-15.9,6.1-22,0c-3-3-4.6-6.9-4.6-11s1.6-8.1,4.6-11c6.1-6.1,15.9-6.1,22,0l11,11L115.6,162.7z"/>
	<path class="st2" d="M229.8,117.3c-9.2-9.2-21.4-14.2-34.4-14.2c-13,0-25.2,5.1-34.4,14.2l-11,11V175l11,11
		c9.2,9.2,21.4,14.3,34.4,14.3s25.2-5.1,34.4-14.3s14.3-21.4,14.3-34.4C244,138.7,238.9,126.4,229.8,117.3z M206.4,162.7
		c-6.1,6.1-15.9,6.1-22,0l-11-11l11-11c6.1-6.1,15.9-6.1,22,0c3,3,4.6,6.9,4.6,11S209.3,159.7,206.4,162.7z"/>
</g>
</svg>
