<?xml version="1.0" encoding="utf-8"?>
<!-- Generator: Adobe Illustrator 24.0.1, SVG Export Plug-In . SVG Version: 6.00 Build 0)  -->
<svg version="1.1" id="Capa_1" xmlns="http://www.w3.org/2000/svg" xmlns:xlink="http://www.w3.org/1999/xlink" x="0px" y="0px"
	 viewBox="0 0 30 30" style="enable-background:new 0 0 30 30;" xml:space="preserve">
<style type="text/css">
	.st0{fill:#E7A036;}
	.st1{fill:#C77D1A;}
	.st2{fill:#A55D05;}
	.st3{fill:#E7C739;}
	.st4{fill:#CEAE25;}
</style>
<path class="st0" d="M28.4,8.3c-0.3-0.5-0.5-1-0.9-1.5c-0.6-0.8-1.2-1.6-1.9-2.4c-0.5-0.5-1-1-1.6-1.4c-0.1-0.1-0.2-0.1-0.3-0.2
	c-0.1-0.1-0.3-0.2-0.5-0.3c-0.5-0.3-1-0.6-1.5-0.9C19.7,0.6,17.4,0,15,0s-4.7,0.6-6.7,1.6c-0.5,0.3-1,0.5-1.5,0.9
	C5.9,3,5.1,3.7,4.4,4.4S3,5.9,2.5,6.8C2.3,6.9,2.2,7.2,2.1,7.3c0,0,0,0.1-0.1,0.1c0,0.1-0.1,0.2-0.1,0.2c0,0-0.1,0.1-0.1,0.1
	c0,0.1-0.1,0.2-0.1,0.2c0,0.1-0.1,0.1-0.1,0.2C0.6,10.3,0,12.6,0,15s0.6,4.7,1.6,6.7c0,0.1,0.1,0.1,0.1,0.2c0.1,0.2,0.2,0.5,0.4,0.7
	c0,0,0,0.1,0.1,0.1c0.1,0.2,0.2,0.3,0.3,0.5c0.6,0.8,1.2,1.6,1.9,2.4s1.5,1.4,2.4,1.9c0.1,0,0.1,0.1,0.2,0.1c0,0,0.1,0.1,0.2,0.1
	c0,0,0,0,0,0c0,0,0.1,0,0.1,0.1c0.1,0.1,0.3,0.1,0.4,0.2c0.1,0,0.1,0.1,0.1,0.1s0.1,0,0.2,0.1c0,0,0.1,0.1,0.1,0.1
	c0.1,0,0.1,0.1,0.2,0.1c2.1,1,4.4,1.6,6.7,1.6s4.7-0.5,6.7-1.6c0.5-0.3,1-0.6,1.5-0.9c0.8-0.6,1.6-1.2,2.4-1.9
	c0.7-0.7,1.4-1.5,1.9-2.4c0-0.1,0.1-0.1,0.1-0.2c0.1-0.2,0.2-0.3,0.3-0.5c0,0,0,0,0,0l0,0c0,0,0,0,0-0.1c0-0.1,0.1-0.1,0.1-0.2
	c0,0,0-0.1,0.1-0.1c0-0.1,0.1-0.1,0.1-0.2c0-0.1,0.1-0.1,0.1-0.2c0,0,0-0.1,0.1-0.1c0,0,0-0.1,0.1-0.1c0.1-0.1,0.1-0.3,0.2-0.4
	c0.1-0.3,0.3-0.6,0.4-0.9c0-0.1,0.1-0.2,0.1-0.3c0-0.1,0.1-0.2,0.1-0.3c0.1-0.2,0.1-0.5,0.2-0.7c0.3-1.3,0.5-2.6,0.5-3.9
	C30,12.6,29.5,10.3,28.4,8.3z M23.3,20.8c-0.7,1-1.5,1.8-2.5,2.5c-0.5,0.3-1,0.6-1.5,0.9c-1.3,0.6-2.8,1-4.3,1s-3-0.3-4.3-1l0,0
	c-0.5-0.2-1-0.5-1.5-0.9c-1-0.7-1.8-1.5-2.5-2.5c-0.3-0.5-0.6-1-0.9-1.5l0,0C5.2,18,4.9,16.5,4.9,15s0.3-3,0.9-4.3l0,0
	c0.2-0.5,0.5-1,0.9-1.5c0.7-1,1.5-1.8,2.5-2.5c0.5-0.3,1-0.6,1.5-0.9C12,5.2,13.5,4.9,15,4.9s3,0.3,4.3,0.9c0.5,0.2,1,0.5,1.5,0.9
	c1,0.7,1.8,1.5,2.5,2.5c0.3,0.5,0.6,1,0.9,1.5c0.6,1.3,1,2.8,1,4.3s-0.3,3-1,4.3C23.9,19.8,23.6,20.3,23.3,20.8z"/>
<g>
	<path class="st1" d="M30,15c0,1.3-0.2,2.6-0.5,3.9c-0.1,0.2-0.1,0.5-0.2,0.7c0,0.1-0.1,0.2-0.1,0.3c0,0.1-0.1,0.2-0.1,0.3
		c-0.1,0.3-0.2,0.6-0.4,0.9c-0.1,0.1-0.1,0.3-0.2,0.4c0,0,0,0.1-0.1,0.1c0,0,0,0.1-0.1,0.1c0,0.1-0.1,0.1-0.1,0.2
		c0,0.1-0.1,0.2-0.1,0.2c0,0-0.1,0.1-0.1,0.1c0,0.1-0.1,0.1-0.1,0.2c0,0,0,0,0,0.1l0,0c0,0,0,0,0,0c-0.1,0.2-0.2,0.3-0.3,0.5
		c-0.1,0.1-0.1,0.2-0.1,0.2c-0.6,0.8-1.2,1.6-1.9,2.4c-0.7,0.7-1.5,1.4-2.4,1.9c-0.5,0.3-1,0.6-1.5,0.9c-2.1,1-4.4,1.6-6.7,1.6v-4.9
		c1.5,0,3-0.3,4.3-1c0.5-0.2,1-0.5,1.5-0.9c1-0.7,1.8-1.5,2.5-2.5c0.3-0.5,0.6-1,0.9-1.5c0.6-1.3,1-2.8,1-4.3s-0.3-3-1-4.3
		c-0.2-0.5-0.5-1-0.9-1.5c-0.7-1-1.5-1.8-2.5-2.5c-0.5-0.3-1-0.6-1.5-0.9C18,5.2,16.5,4.9,15,4.9V0c2.4,0,4.7,0.6,6.7,1.6
		c0.5,0.3,1,0.5,1.5,0.9c0.2,0.1,0.3,0.2,0.5,0.3C23.8,2.8,23.9,2.9,24,3c0.6,0.4,1.1,0.9,1.6,1.4c0.7,0.7,1.4,1.5,1.9,2.4
		c0.3,0.5,0.6,1,0.9,1.5C29.5,10.3,30,12.6,30,15z"/>
	<path class="st1" d="M10.7,5.9c-0.5,0.2-1,0.5-1.5,0.9L6.8,2.5c0.5-0.3,1-0.6,1.5-0.9L10.7,5.9z"/>
</g>
<path class="st2" d="M23.2,27.5c-0.5,0.3-1,0.6-1.5,0.9l-2.5-4.3c0.5-0.2,1-0.5,1.5-0.9L23.2,27.5z"/>
<path class="st1" d="M6.7,9.2c-0.3,0.5-0.6,1-0.9,1.5L1.6,8.3c0-0.1,0.1-0.1,0.1-0.2c0-0.1,0.1-0.2,0.1-0.2c0,0,0-0.1,0.1-0.1
	C1.9,7.6,2,7.5,2,7.5c0,0,0-0.1,0.1-0.1C2.2,7.2,2.3,7,2.5,6.8L6.7,9.2z"/>
<path class="st2" d="M28.4,21.7c0,0.1-0.1,0.1-0.1,0.2c0,0.1-0.1,0.1-0.1,0.2c0,0.1,0,0.1-0.1,0.1c0,0.1-0.1,0.1-0.1,0.2
	c0,0,0,0,0,0.1l0,0c0,0,0,0,0,0c-0.1,0.2-0.2,0.3-0.3,0.5c0,0.1-0.1,0.1-0.1,0.2l-4.3-2.5c0.3-0.5,0.6-1,0.9-1.5L28.4,21.7
	L28.4,21.7z"/>
<path class="st1" d="M6.7,20.8l-4.3,2.5c-0.1-0.2-0.2-0.3-0.3-0.5c0,0,0-0.1-0.1-0.1c-0.1-0.2-0.3-0.5-0.4-0.7
	c0-0.1-0.1-0.1-0.1-0.2l4.3-2.5C6.1,19.8,6.4,20.3,6.7,20.8z"/>
<path class="st2" d="M28.4,8.3l-4.3,2.5c-0.2-0.5-0.5-1-0.9-1.5l4.3-2.5C27.9,7.2,28.1,7.7,28.4,8.3z"/>
<path class="st1" d="M10.7,24.1l-2.5,4.3c-0.1,0-0.1-0.1-0.2-0.1c0,0-0.1-0.1-0.1-0.1c-0.1,0-0.1-0.1-0.2-0.1s-0.1,0-0.1-0.1
	c-0.1-0.1-0.3-0.1-0.4-0.2c0,0-0.1,0-0.1-0.1c0,0,0,0,0,0c-0.1,0-0.1-0.1-0.2-0.1c-0.1,0-0.1-0.1-0.2-0.1l2.5-4.3
	C9.7,23.6,10.2,23.9,10.7,24.1z"/>
<path class="st2" d="M23.2,2.5l-2.5,4.3c-0.5-0.3-1-0.6-1.5-0.9l2.5-4.3C22.3,1.9,22.8,2.1,23.2,2.5z"/>
<path class="st3" d="M11.6,14.1l1.1,1.1l-1.1,1.1c-0.6,0.6-1.6,0.6-2.2,0c-0.3-0.3-0.5-0.7-0.5-1.1c0-0.4,0.2-0.8,0.5-1.1
	C10,13.5,11,13.5,11.6,14.1z"/>
<path class="st3" d="M15,3.7v9.1l-1.1-1.1c-0.9-0.9-2.1-1.4-3.4-1.4S7.9,10.8,7,11.7c-0.9,0.9-1.4,2.1-1.4,3.4s0.5,2.5,1.4,3.4
	c0.9,0.9,2.1,1.4,3.4,1.4s2.5-0.5,3.4-1.4l1.1-1.1v8.8c-1.7,0-3.3-0.4-4.8-1.1l0,0c0,0-0.1,0-0.1,0c-0.5-0.2-1-0.5-1.5-0.9
	c0,0-0.1,0-0.1-0.1c-1.1-0.8-2-1.7-2.8-2.8c0,0,0-0.1-0.1-0.1c-0.3-0.5-0.6-1-0.9-1.5c0,0,0-0.1,0-0.1l0,0c-0.7-1.5-1.1-3.1-1.1-4.8
	s0.4-3.3,1.1-4.8l0,0c0,0,0-0.1,0-0.1c0.2-0.5,0.5-1,0.9-1.5c0,0,0-0.1,0.1-0.1c0.8-1.1,1.7-2,2.8-2.8c0,0,0.1,0,0.1-0.1
	c0.5-0.3,1-0.6,1.5-0.9c0,0,0.1,0,0.1,0C11.7,4.1,13.3,3.7,15,3.7z"/>
<path class="st4" d="M18.4,16.3l-1.1-1.1l1.1-1.1c0.6-0.6,1.6-0.6,2.2,0c0.3,0.3,0.5,0.7,0.5,1.1c0,0.4-0.2,0.8-0.5,1.1
	C20,16.9,19,16.9,18.4,16.3z"/>
<path class="st4" d="M26.3,15c0,1.7-0.4,3.3-1.1,4.8c0,0,0,0.1,0,0.1c-0.2,0.5-0.5,1-0.9,1.5c0,0,0,0.1-0.1,0.1
	c-0.8,1.1-1.7,2-2.8,2.8c0,0-0.1,0-0.1,0.1c-0.5,0.3-1,0.6-1.5,0.9c0,0-0.1,0-0.1,0c-1.4,0.7-3.1,1.1-4.8,1.1v-8.8l1.1,1.1
	c0.9,0.9,2.1,1.4,3.4,1.4c1.3,0,2.5-0.5,3.4-1.4s1.4-2.1,1.4-3.4s-0.5-2.5-1.4-3.4c-0.9-0.9-2.1-1.4-3.4-1.4c-1.3,0-2.5,0.5-3.4,1.4
	L15,12.8V3.7c1.7,0,3.3,0.4,4.8,1.1c0,0,0.1,0,0.1,0c0.5,0.2,1,0.5,1.5,0.9c0,0,0.1,0,0.1,0.1c1.1,0.8,2,1.7,2.8,2.8
	c0,0,0,0.1,0.1,0.1c0.3,0.5,0.6,1,0.9,1.5c0,0,0,0.1,0,0.1C25.9,11.7,26.3,13.3,26.3,15z"/>
<g>
	<path class="st1" d="M13.9,11.7c-0.9-0.9-2.1-1.4-3.4-1.4S7.9,10.8,7,11.7c-0.9,0.9-1.4,2.1-1.4,3.4s0.5,2.5,1.4,3.4
		c0.9,0.9,2.1,1.4,3.4,1.4s2.5-0.5,3.4-1.4l1.1-1.1v-4.7L13.9,11.7z M11.6,16.3c-0.6,0.6-1.6,0.6-2.2,0c-0.3-0.3-0.5-0.7-0.5-1.1
		c0-0.4,0.2-0.8,0.5-1.1c0.6-0.6,1.6-0.6,2.2,0l1.1,1.1L11.6,16.3z"/>
	<path class="st2" d="M23,11.7c-0.9-0.9-2.1-1.4-3.4-1.4c-1.3,0-2.5,0.5-3.4,1.4L15,12.8v4.7l1.1,1.1c0.9,0.9,2.1,1.4,3.4,1.4
		c1.3,0,2.5-0.5,3.4-1.4c0.9-0.9,1.4-2.1,1.4-3.4C24.4,13.9,23.9,12.6,23,11.7z M20.6,16.3c-0.6,0.6-1.6,0.6-2.2,0l-1.1-1.1l1.1-1.1
		c0.6-0.6,1.6-0.6,2.2,0c0.3,0.3,0.5,0.7,0.5,1.1C21.1,15.6,20.9,16,20.6,16.3z"/>
</g>
</svg>
