<?xml version="1.0" encoding="iso-8859-1"?>
<!-- Generator: Adobe Illustrator 19.0.0, SVG Export Plug-In . SVG Version: 6.00 Build 0)  -->
<svg version="1.1" id="Layer_1" xmlns="http://www.w3.org/2000/svg" xmlns:xlink="http://www.w3.org/1999/xlink" x="0px" y="0px"
	 viewBox="0 0 512 512" style="enable-background:new 0 0 512 512;" xml:space="preserve">
<g>
	<path style="fill:#CD5838;" d="M190.906,294.225l-52.549,73.568c-1.574,2.204,0.001,5.267,2.71,5.267h49.839h16.956v-78.835
		H190.906z"/>
	<path style="fill:#CD5838;" d="M373.526,367.629l-52.432-73.404h-16.287v78.835h16.287h49.637
		C373.525,373.06,375.149,369.903,373.526,367.629z"/>
</g>
<path style="fill:#ECE5DD;" d="M199.697,405.88c-5.45,0-9.886-4.435-9.886-9.886v-78.687l132.376-11.031v89.718
	c0,5.45-4.435,9.886-9.886,9.886H199.697z"/>
<path style="fill:#CED0CD;" d="M258.032,368.209c-5.45,0-9.886-4.435-9.886-9.886v-45.876l-58.335,4.861v78.687
	c0,5.45,4.435,9.886,9.886,9.886h112.605c5.45,0,9.886-4.435,9.886-9.886v-27.786L258.032,368.209L258.032,368.209z"/>
<path style="fill:#486D9A;" d="M199.697,405.88c-5.45,0-9.886-4.435-9.886-9.886v-13.046l132.376-11.031v24.077
	c0,5.45-4.435,9.886-9.886,9.886H199.697z"/>
<polygon style="fill:#5683BF;" points="189.812,317.308 322.188,306.277 322.188,340.197 189.812,351.228 "/>
<polygon style="fill:#486D9A;" points="248.146,312.447 189.812,317.308 189.812,351.228 248.146,346.367 "/>
<path style="fill:#ECB45D;" d="M189.812,292.469c-53.751-25.686-88.091-80.713-87.514-140.285
	c0.397-40.953,16.849-79.385,46.328-108.217C177.612,15.614,215.749,0,256.007,0c0.645,0,1.295,0.003,1.941,0.012
	c83.681,1.042,151.761,69.99,151.761,153.697c0,58.917-34.342,113.345-87.521,138.76v14.907l-132.376,11.031V292.469z"/>
<path style="fill:#EAA03D;" d="M245.669,313.752V295.58c0-1.905-1.093-3.626-2.794-4.482
	c-52.144-26.237-85.286-80.382-84.72-138.914c0.397-40.953,16.849-79.385,46.328-108.217c22.169-21.685,49.692-35.907,79.42-41.403
	c-8.437-1.566-17.108-2.443-25.956-2.553C257.302,0.003,256.653,0,256.007,0c-40.259,0-78.394,15.614-107.381,43.967
	c-29.478,28.832-45.93,67.263-46.328,108.217c-0.577,59.57,33.762,114.597,87.514,140.285v25.938L245.669,313.752z"/>
<g>
	<path style="fill:#CD5838;" d="M338.967,171.001l-7.186-4.15c-3.196-1.845-4.953-5.378-4.479-9.003
		c0.406-3.095,0.613-6.257,0.613-9.397c0-3.129-0.207-6.287-0.616-9.387c-0.478-3.627,1.28-7.164,4.478-9.008l7.196-4.155
		c2.358-1.364,4.044-3.564,4.747-6.195c0.703-2.63,0.341-5.376-1.021-7.734l-11.756-20.363c-1.365-2.365-3.571-4.054-6.169-4.746
		c-0.873-0.237-1.772-0.357-2.673-0.357c-1.78,0-3.54,0.473-5.092,1.368l-7.194,4.154c-1.401,0.81-2.983,1.237-4.574,1.237
		c-1.989,0.001-3.882-0.645-5.469-1.865c-5.001-3.844-10.476-7.012-16.277-9.414c-3.364-1.394-5.539-4.68-5.539-8.374V65.33
		c0-5.624-4.576-10.2-10.2-10.2h-23.515c-5.624,0-10.2,4.576-10.2,10.2v8.283c0,3.693-2.174,6.981-5.54,8.375
		c-5.804,2.404-11.282,5.571-16.277,9.411c-1.589,1.221-3.481,1.865-5.472,1.865c-1.59,0-3.173-0.428-4.573-1.234l-7.191-4.153
		c-1.55-0.895-3.31-1.368-5.089-1.368c-0.898,0-1.796,0.118-2.633,0.345c-2.639,0.703-4.844,2.393-6.209,4.757l-11.755,20.36
		c-1.364,2.36-1.727,5.111-1.021,7.746c0.706,2.629,2.392,4.828,4.751,6.191l7.186,4.15c3.196,1.845,4.953,5.377,4.478,9.002
		c-0.405,3.096-0.612,6.258-0.612,9.397c0,3.13,0.207,6.29,0.616,9.387c0.478,3.627-1.28,7.164-4.478,9.009l-7.189,4.151
		c-2.365,1.365-4.054,3.571-4.755,6.2c-0.703,2.629-0.341,5.375,1.02,7.732l11.758,20.365c1.816,3.146,5.201,5.1,8.833,5.1
		c0.001,0,0.001,0,0.001,0c1.79,0,3.554-0.475,5.099-1.368l7.19-4.153c1.404-0.81,2.986-1.238,4.576-1.238
		c1.99,0,3.883,0.645,5.472,1.869c5,3.842,10.475,7.008,16.275,9.413c3.364,1.394,5.539,4.68,5.539,8.374v8.283
		c0,5.624,4.576,10.2,10.2,10.2h23.515c5.624,0,10.199-4.576,10.199-10.2v-8.285c0-3.693,2.174-6.981,5.54-8.374
		c5.801-2.401,11.277-5.569,16.279-9.411c1.589-1.22,3.48-1.865,5.47-1.865c1.59,0,3.17,0.428,4.574,1.237l7.182,4.147
		c1.55,0.896,3.315,1.371,5.105,1.371c3.633,0,7.018-1.954,8.835-5.1l11.76-20.37c1.359-2.358,1.72-5.105,1.015-7.735
		C343.012,174.56,341.323,172.359,338.967,171.001z M256,181.82c-18.398,0-33.368-14.969-33.368-33.368s14.969-33.368,33.368-33.368
		s33.368,14.969,33.368,33.368S274.398,181.82,256,181.82z"/>
	<path style="fill:#CD5838;" d="M256,473.709c-4.533,0-8.205,3.673-8.205,8.205v10.94c0,4.533,3.673,8.205,8.205,8.205
		s8.205-3.673,8.205-8.205v-10.94C264.205,477.382,260.531,473.709,256,473.709z"/>
	<path style="fill:#CD5838;" d="M212.239,419.009c-4.533,0-8.205,3.673-8.205,8.205v76.581c0,4.533,3.673,8.205,8.205,8.205
		c4.533,0,8.205-3.673,8.205-8.205v-76.581C220.444,422.681,216.771,419.009,212.239,419.009z"/>
	<path style="fill:#CD5838;" d="M299.76,419.009c-4.533,0-8.205,3.673-8.205,8.205v76.581c0,4.533,3.673,8.205,8.205,8.205
		c4.533,0,8.205-3.673,8.205-8.205v-76.581C307.966,422.681,304.292,419.009,299.76,419.009z"/>
	<path style="fill:#CD5838;" d="M256,419.009c-4.533,0-8.205,3.673-8.205,8.205v21.88c0,4.533,3.673,8.205,8.205,8.205
		s8.205-3.673,8.205-8.205v-21.88C264.205,422.681,260.531,419.009,256,419.009z"/>
</g>
<g>
</g>
<g>
</g>
<g>
</g>
<g>
</g>
<g>
</g>
<g>
</g>
<g>
</g>
<g>
</g>
<g>
</g>
<g>
</g>
<g>
</g>
<g>
</g>
<g>
</g>
<g>
</g>
<g>
</g>
</svg>
